<svg width="30" height="30" viewBox="0 0 30 30" fill="none" xmlns="http://www.w3.org/2000/svg">
<path d="M25 13.7487H27.5C27.5 7.33625 22.6588 2.5 16.2375 2.5V5C21.315 5 25 8.67875 25 13.7487Z" fill="#F5F5F5"/>
<path d="M16.2499 10.0001C18.8786 10.0001 19.9999 11.1213 19.9999 13.7501H22.4999C22.4999 9.7188 20.2811 7.50005 16.2499 7.50005V10.0001ZM20.5274 16.8038C20.2872 16.5855 19.9715 16.4691 19.6471 16.4791C19.3227 16.4891 19.0149 16.6248 18.7886 16.8576L15.7974 19.9338C15.0774 19.7963 13.6299 19.3451 12.1399 17.8588C10.6499 16.3676 10.1986 14.9163 10.0649 14.2013L13.1386 11.2088C13.3716 10.9827 13.5075 10.6748 13.5176 10.3503C13.5276 10.0258 13.411 9.71011 13.1924 9.47005L8.57361 4.3913C8.35492 4.1505 8.05096 4.00443 7.72631 3.98413C7.40165 3.96382 7.08186 4.07088 6.83486 4.28255L4.12236 6.6088C3.90625 6.8257 3.77726 7.11437 3.75986 7.42005C3.74111 7.73255 3.38361 15.1351 9.12361 20.8776C14.1311 25.8838 20.4036 26.2501 22.1311 26.2501C22.3836 26.2501 22.5386 26.2426 22.5799 26.2401C22.8855 26.2229 23.174 26.0934 23.3899 25.8763L25.7149 23.1626C25.9267 22.9157 26.034 22.596 26.0139 22.2714C25.9938 21.9467 25.848 21.6427 25.6074 21.4238L20.5274 16.8038Z" fill="#F5F5F5"/>
</svg>
