<svg width="100" height="24" viewBox="0 0 100 24" fill="none" xmlns="http://www.w3.org/2000/svg">
<path fill-rule="evenodd" clip-rule="evenodd" d="M95.8012 2.31665L99.9999 2.33978C99.9999 2.33978 92.1936 12.9177 91.5562 13.7798C91.3492 14.0589 91.0348 14.36 90.8752 14.7332C90.472 15.6714 90.058 17.7293 90.058 17.7293L86.2163 17.7486C86.2163 17.7486 86.8141 15.6033 86.7894 14.4607C86.7679 13.4626 86.2582 12.4657 85.9724 11.4646C85.6835 10.4512 85.2913 8.46828 85.2913 8.46828H89.241L89.7858 10.6474L95.8012 2.31665Z" fill="#3F3F3F"/>
<path fill-rule="evenodd" clip-rule="evenodd" d="M87.8506 4.5476C88.6254 5.01471 89.101 7.59157 89.101 7.59157C89.101 7.59157 85.0465 7.65135 82.8401 7.65135H80.9335L78.6181 17.7294H75.0772C75.0772 17.7294 77.2809 6.77711 77.8011 4.79145C77.9697 4.14851 78.956 4.25887 80.6216 4.25887H83.2814C84.9989 4.25887 87.0063 4.03953 87.8506 4.5476ZM71.366 9.45589C71.366 9.45589 71.4764 8.80903 70.9916 8.05985C70.5774 7.42123 70.195 7.27265 69.1054 7.23854C66.0289 7.1419 66.0886 9.42179 66.0886 9.42179L71.366 9.45589ZM74.7026 6.84493C75.1535 8.4713 74.2941 12.2927 74.2941 12.2927C74.2941 12.2927 69.8065 12.2178 67.3484 12.2927C66.5842 12.316 65.6694 12.2096 65.4418 12.5651C65.1217 13.0634 65.5588 13.8304 65.9293 14.1544C66.3556 14.5275 67.1861 14.57 67.4847 14.6078C69.4797 14.8613 73.6553 14.6733 73.6553 14.6733L72.932 17.8762C72.932 17.8762 67.0313 18.1722 64.0798 17.4677C63.4971 17.329 62.9508 17.0485 62.5817 16.6507C62.4809 16.5419 62.3935 16.3936 62.2982 16.2654C62.2222 16.163 62.0003 15.8269 61.9007 15.5611C61.2266 13.7648 61.9797 10.3235 62.7179 8.47933C62.8036 8.26567 62.9112 7.99458 63.0245 7.76426C63.166 7.47709 63.2858 7.15288 63.3989 6.98117C63.4749 6.86277 63.5692 6.78652 63.6482 6.67479C63.7394 6.54267 63.8454 6.41467 63.9436 6.3004C64.2161 5.98442 64.5252 5.76095 64.897 5.48339C66.1267 4.5625 68.3521 3.84762 71.0255 4.12126C72.0321 4.22476 73.5522 4.58426 74.2941 5.61943C74.4929 5.89582 74.5911 6.44467 74.7026 6.84513V6.84493ZM58.462 4.24632L61.8954 4.22613C61.8954 4.22613 59.9819 13.3031 59.0067 17.7294H55.0569C52.2966 17.7294 49.8384 18.0713 48.7924 16.095C47.7778 14.1762 48.7461 11.0207 49.2009 8.87686C49.5224 7.35968 50.1994 4.25867 50.1994 4.25867L53.7568 4.22613C53.7568 4.22613 52.7516 9.05406 52.3333 11.4647C52.1835 12.3281 51.8746 13.1412 52.1972 13.7797C52.5036 14.3873 52.9327 14.4308 54.2399 14.4608C54.6541 14.4706 56.0106 14.4608 56.0106 14.4608L58.462 4.24632ZM42.3914 10.7835C42.7509 9.50627 43.2753 8.12121 43.2086 6.97019C43.1365 5.7392 42.1043 4.61837 41.4382 4.38275C39.4322 3.67454 37.5541 4.66463 36.8077 5.47222C35.8421 6.51817 35.5151 7.73995 35.1733 9.42198C34.9188 10.6706 34.7103 11.9888 35.1733 12.9627C35.993 14.6843 38.5495 14.3083 41.302 14.3248C41.7105 13.2298 42.0482 12 42.3914 10.7835ZM47.1582 5.74469C47.5502 8.59635 46.0456 11.744 45.0091 14.4812C46.066 14.5767 46.9922 14.4665 47.0588 14.5453C47.1282 14.6474 46.3504 17.8125 46.0793 17.8208C45.2406 17.8425 42.461 17.8657 41.302 17.8657C37.5198 17.8657 33.9817 18.112 32.1773 16.2315C31.4446 15.4674 30.9379 14.157 30.8152 13.2351C30.6109 11.6962 30.867 10.0018 31.2239 8.60478C31.5467 7.34341 31.9605 6.15319 32.5858 5.06352C34.1751 2.28948 36.9398 0.230308 41.5742 0.705651C42.4732 0.798172 43.7641 1.19178 44.5706 1.65889C44.6262 1.69162 44.8213 1.84687 44.866 1.87411C45.9556 2.56743 46.9485 4.22202 47.1582 5.74469ZM30.4243 4.26279C30.1956 5.30463 29.9668 6.48563 29.7257 7.51512H25.9124C26.2078 6.3739 26.434 5.23935 26.7296 4.24652C27.9498 4.24652 29.0844 4.26279 30.4245 4.26279M25.7762 8.46855H29.4535C28.9726 11.1297 28.0206 15.4223 27.2743 18.4104C26.8072 20.2804 26.4954 21.6449 25.2314 22.6322C25.1183 22.7208 25.0531 22.6787 24.959 22.7685C24.7261 22.9905 23.6488 23.2481 23.0525 23.3132C22.0828 23.4183 20.9865 23.3269 19.7947 23.3024C20.1065 22.1626 20.4594 20.7938 20.7373 19.7721C23.6423 20.1238 23.7158 17.378 24.2782 14.7333C24.6036 13.2051 25.5898 9.0813 25.7762 8.46855Z" fill="#3F3F3F"/>
<path fill-rule="evenodd" clip-rule="evenodd" d="M17.1961 15.4144L17.1173 15.6184C15.7746 18.2333 13.3951 19.8377 10.0013 19.9085C8.41471 19.941 6.90302 19.5341 5.91548 19.0913C3.78437 18.1341 1.99179 16.3582 1.01288 14.4609C-0.391396 11.7412 -0.644651 7.95763 2.27523 5.13184C2.32032 5.13184 1.92103 5.74459 1.96611 5.74459L1.88574 6.00608C-0.218312 12.5937 6.2642 18.2388 12.5658 17.5931C14.0802 17.438 16.0114 16.6087 17.1961 15.4144Z" fill="#3F3F3F"/>
<path fill-rule="evenodd" clip-rule="evenodd" d="M13.3829 12.6905C14.9683 12.7014 16.6243 11.9605 17.605 10.92C16.747 13.0978 14.2629 14.4977 10.9317 14.0524C8.14239 13.6792 5.48537 10.8724 5.21173 8.06011C5.01159 6.0131 5.7249 4.79151 6.90042 3.30981C6.49192 4.08467 6.33922 4.68253 6.3012 5.06378C5.85467 9.49144 9.83814 12.6673 13.3829 12.6905Z" fill="#3F3F3F"/>
<path fill-rule="evenodd" clip-rule="evenodd" d="M17.4455 7.19102C17.1991 7.75634 15.7801 8.82385 15.1535 8.95714C12.6721 9.4858 11.0829 8.30911 10.2505 6.97031C10.1268 6.77017 9.89801 6.22407 9.85704 6.08509C9.5342 4.98739 9.68259 3.32712 10.6456 2.46777C10.3555 3.28517 10.3132 4.23409 10.4659 4.85116C10.5584 5.22437 10.8403 5.87555 11.1223 6.28522C11.6355 7.03166 11.9609 7.21298 12.6203 7.60913C12.9173 7.78751 13.2358 7.9306 13.3734 7.97C13.9985 8.15386 15.3183 8.63881 17.4457 7.19102" fill="#3F3F3F"/>
</svg>
