<svg width="50" height="50" viewBox="0 0 50 50" fill="none" xmlns="http://www.w3.org/2000/svg">
<path d="M13.3782 23.8375C17.1094 25.149 21.0458 25.7804 25 25.7016C28.9544 25.7799 32.8907 25.148 36.6219 23.8359C39.5344 22.7 40.5672 21.4375 40.5672 20.7109V15.1562C39.549 15.8382 38.4566 16.4022 37.311 16.8375C33.3632 18.2511 29.1927 18.9403 25 18.8719C20.8078 18.939 16.6376 18.2509 12.6891 16.8406C11.543 16.4053 10.4504 15.8401 9.43286 15.1562V20.7031C9.43286 21.4437 10.4688 22.7 13.3782 23.8375ZM13.3782 34.3141C14.6963 34.8168 16.0556 35.2041 17.4407 35.4719C19.9314 35.9537 22.4632 36.1908 25 36.1797C27.5368 36.1913 30.0687 35.9547 32.5594 35.4734C33.9445 35.2057 35.3038 34.8183 36.6219 34.3156C39.5344 33.1797 40.5672 31.9172 40.5672 31.1906V25.8937C39.7255 26.4002 38.8409 26.8316 37.9235 27.1828C33.7763 28.6512 29.3988 29.362 25 29.2812C20.6008 29.3595 16.2234 28.646 12.0766 27.175C11.1596 26.8229 10.275 26.3915 9.43286 25.8859V31.1875C9.43286 31.9156 10.4688 33.1734 13.3782 34.3141V34.3141ZM25 46.875C33.5938 46.875 40.5672 44.15 40.5672 40.7906V36.3578C39.8015 36.8194 38.9994 37.2176 38.1688 37.5484L37.9235 37.6469C33.7771 39.1196 29.3996 39.8346 25 39.7578C20.6004 39.8368 16.2225 39.1218 12.0766 37.6469C11.9922 37.6156 11.911 37.5797 11.8313 37.5484C11.0007 37.2176 10.1986 36.8194 9.43286 36.3578V40.7906C9.43286 44.15 16.4063 46.875 25 46.875Z" fill="#3F3F3F"/>
<path d="M25 15.2937C33.5976 15.2937 40.5672 12.5697 40.5672 9.20937C40.5672 5.84907 33.5976 3.125 25 3.125C16.4025 3.125 9.43286 5.84907 9.43286 9.20937C9.43286 12.5697 16.4025 15.2937 25 15.2937Z" fill="#3F3F3F"/>
</svg>
