<svg width="50" height="50" viewBox="0 0 50 50" fill="none" xmlns="http://www.w3.org/2000/svg">
<path d="M11.3812 7.2417C13.9375 10.8854 15.6187 15.4146 16 20.4125C16.2955 24.1187 15.8188 27.8459 14.6 31.3584C15.3668 30.4431 16.3092 29.6908 17.3716 29.1459C18.4339 28.6009 19.5947 28.2743 20.7854 28.1854C20.8896 28.1771 20.9917 28.1729 21.0937 28.1688C21.2604 27.1459 22.0729 20.9813 19.0583 14.2521C16.8333 9.28128 12.8083 7.66878 11.3812 7.2417V7.2417ZM15.0833 7.31878C15.0833 7.31878 20.0958 9.53962 22.0125 18.875C23.2771 25.0313 22.1146 28.95 21.175 30.9021C23.7327 28.4781 27.0484 27.0108 30.5625 26.7479C32.3542 26.6125 34.0937 26.7896 35.7333 27.2334C35.525 25.6896 34.4979 20.1209 30.0417 14.9C23.2437 6.93545 15.0833 7.3167 15.0833 7.3167V7.31878ZM45.9521 27.5292L8.61875 33.8813C9.58591 34.216 10.4194 34.8536 10.9954 35.6996C11.5715 36.5455 11.8595 37.5546 11.8167 38.5771C11.8004 39.0087 11.7261 39.4362 11.5958 39.848C11.7104 39.7917 17.1979 37.1917 24.8083 35.6104C31.5542 34.2084 36.7313 34.8604 37.9021 35.0417C38.6384 33.2927 39.7363 31.7192 41.1236 30.4245C42.511 29.1298 44.1565 28.1431 45.9521 27.5292V27.5292ZM33.0083 36.025C28.1792 36.025 23.3396 37.0563 19.2292 38.4542C13.2542 40.4875 13.0812 41.2625 7.66667 40.6271C3.84167 40.1792 0 38.3042 0 38.3042C0 38.3042 5.0125 42.4084 10.2375 42.7354C14.375 42.9959 17.5396 41.023 21.3104 39.7896C26.8542 37.975 30.7083 37.7688 34.3375 37.7584C40.3354 37.7417 50 40.3188 50 40.3188C50 40.3188 45.6042 38.1438 39.5146 36.7354C37.3796 36.254 35.1969 36.0163 33.0083 36.0271V36.025Z" fill="#3F3F3F"/>
</svg>
