<svg width="70" height="48" viewBox="0 0 70 48" fill="none" xmlns="http://www.w3.org/2000/svg">
<g clip-path="url(#clip0_653_297)">
<path d="M20.8236 31.5812L22.951 38.441C23.4289 39.9985 23.6283 41.0858 23.5484 41.7055C24.7119 38.6087 25.5248 35.2339 25.9874 31.5812H28.5454C27.4455 37.5278 25.9947 41.8491 24.194 44.5448C22.791 46.6221 21.254 47.6607 19.5803 47.6607C19.1341 47.6607 18.5839 47.5268 17.9311 47.2607V45.8273C18.25 45.8738 18.6242 45.8986 19.0546 45.8986C19.8354 45.8986 20.4647 45.6835 20.9435 45.2543C21.5168 44.7313 21.8038 44.1436 21.8038 43.4921C21.8038 43.0472 21.58 42.1343 21.1344 40.7533L18.1703 31.5812H20.8235H20.8236ZM4.54221 27.365L8.43869 39.1799H8.46275L12.3832 27.365H15.5862C16.2876 33.2243 16.7018 38.5854 16.829 43.4449H14.1285C14.0335 38.9023 13.7703 34.6307 13.3399 30.6295H13.3164L9.20418 43.4449H7.14766L3.06031 30.6295H3.03625C2.73301 34.4722 2.54215 38.7437 2.46258 43.4449H0C0.159141 37.7274 0.557402 32.3679 1.19479 27.365H4.54234H4.54221Z" fill="#3F3F3F"/>
<path d="M48.193 27.1264C52.3844 27.1264 54.4801 29.7875 54.4801 35.1073C54.4801 37.9982 53.8499 40.1818 52.5906 41.6569C52.3636 41.9265 52.1127 42.1594 51.8486 42.3751L54.8147 43.8326L54.8118 43.8325L53.7587 45.6399L49.896 43.4C49.2557 43.5885 48.5512 43.6826 47.7835 43.6826C45.7255 43.6826 44.1882 43.0866 43.1719 41.8959C42.0562 40.5788 41.4987 38.5052 41.4987 35.6788C41.4987 32.8043 42.1279 30.629 43.3876 29.1519C44.535 27.8008 46.137 27.1262 48.193 27.1262V27.1264ZM35.3578 27.1497C36.8559 27.1497 38.218 27.5481 39.4449 28.342L38.8218 29.7221C37.7719 29.2786 36.7368 29.0559 35.716 29.0559C34.8878 29.0559 34.2496 29.254 33.8047 29.6526C33.3574 30.0477 33.0807 30.5562 33.0807 31.176C33.0807 32.1285 33.7634 32.9545 35.0241 33.6523C35.4371 33.8767 35.8487 34.1036 36.2588 34.3331L36.3529 34.3857L36.4 34.4121L36.4942 34.4647L36.5413 34.491L36.6353 34.5437C37.5896 35.0784 38.4876 35.5887 38.4876 35.5887C39.7482 36.478 40.3765 37.4261 40.3765 38.9877C40.3765 40.3515 39.8737 41.4709 38.8712 42.3469C37.8681 43.2189 36.5205 43.6561 34.8328 43.6561C33.2544 43.6561 31.7247 43.1529 30.2429 42.1548L30.9361 40.7735C32.2113 41.4087 33.3652 41.7259 34.4014 41.7259C35.3732 41.7259 36.1339 41.5103 36.6842 41.0845C37.2334 40.6555 37.5624 40.0573 37.5624 39.2987C37.5624 38.344 36.8942 37.5278 35.6682 36.8431C35.2845 36.6324 34.9019 36.4197 34.5204 36.2049L34.4265 36.1521C34.254 36.0552 34.0802 35.9571 33.91 35.861L33.8177 35.8089C32.9899 35.3409 32.2742 34.9321 32.2742 34.9321C31.0486 34.0412 30.4341 33.0853 30.4341 31.5103C30.4341 30.2077 30.8923 29.1548 31.8075 28.3538C32.7249 27.5511 33.9085 27.1497 35.3578 27.1497V27.1497ZM59.406 27.3649V41.4668H64.4971V43.4449H56.8239V27.3649H59.406ZM67.3261 41.473V41.8072H66.7664V43.4431H66.3384V41.8072H65.757V41.473H67.3262H67.3261ZM68.3597 41.473L68.8971 42.8159L69.3908 41.473H69.9975V43.4431H69.5941V41.9437L69.0322 43.4431H68.7414L68.1785 41.9437H68.1569V43.4431H67.7754V41.473H68.3598H68.3597ZM47.9294 29.1038C45.4594 29.1038 44.2238 31.1297 44.2238 35.1787C44.2238 37.498 44.5512 39.1798 45.2049 40.2281C45.8103 41.1982 46.7584 41.6823 48.0494 41.6823C50.5194 41.6823 51.7549 39.6407 51.7549 35.5594C51.7549 33.2725 51.4275 31.6051 50.7747 30.5563C50.1686 29.5884 49.2209 29.1038 47.9295 29.1038H47.9294Z" fill="#3F3F3F"/>
<path d="M41.4556 1.28664C42.2749 -0.71421 45.1399 0.801036 46.2517 1.49996C46.5242 1.67483 46.8367 2.04426 47.1491 2.18082C47.6365 2.19984 48.1235 2.23775 48.6117 2.25799C49.5275 2.47185 50.3852 2.64659 51.1068 3.05502C54.4603 5.01769 56.6433 7.01773 58.6523 10.3213C59.0816 11.0211 59.2962 11.7783 59.6468 12.5355C60.1336 13.6642 60.6804 14.849 61.2454 15.9163C61.4983 16.4222 61.6939 16.9849 62.0452 17.4122C62.1823 17.6076 62.5718 17.6652 62.8046 17.7819C63.4483 18.113 64.2281 18.3644 64.8335 18.753C65.9641 19.4536 67.0571 20.2884 68.0508 21.143C68.4212 21.4729 68.6736 21.9399 69.0264 22.2888V22.4649C68.7132 22.5604 68.4011 22.6582 68.0887 22.7366C67.4063 22.9108 66.8019 22.8714 66.1399 23.0457C65.7308 23.1637 65.2229 23.3193 64.7939 23.3588L64.8335 23.3985C65.0859 24.1152 66.4515 24.6981 67.076 25.1268C67.8345 25.6708 68.5374 26.3306 69.1031 27.0883C69.2985 27.2817 69.4939 27.4576 69.6883 27.6504C69.8242 27.8458 69.8625 28.0986 70 28.2727V28.3317C69.8477 28.2783 69.7382 28.1764 69.6344 28.0699L69.5725 28.0056C69.5105 27.9418 69.4481 27.879 69.3768 27.8272C68.9464 27.5351 68.5191 27.1856 68.0887 26.914C67.3487 26.4474 66.4906 26.1766 65.7308 25.7083C65.3012 25.4364 64.8918 25.1268 64.4823 24.8156C64.1111 24.5429 63.7023 24.0193 63.4691 23.6307C63.3317 23.416 63.3128 23.1637 63.1559 23.0084C63.1839 22.749 63.423 22.672 63.6643 22.6086L63.7198 22.5941C63.8031 22.5726 63.8846 22.5512 63.9557 22.5228C64.9693 22.095 66.1778 21.9399 67.7383 21.9787C67.6795 21.5893 66.7044 21.1041 66.3931 20.871C65.7683 20.4234 65.1067 19.9564 64.4439 19.5491C64.0927 19.3358 63.4874 19.18 63.0983 19.0057C62.5718 18.7919 61.4016 18.5781 61.1099 18.1708C60.6143 17.5287 60.2582 16.7627 59.9126 15.9891L59.8186 15.7779C59.7872 15.7076 59.7557 15.6372 59.7242 15.5669C59.3157 14.6353 58.8082 13.6639 58.3987 12.71C58.1846 12.2446 58.0863 11.8362 57.8519 11.3898C56.429 8.65091 54.3231 6.3578 51.7699 4.74513C50.9309 4.22039 49.9953 3.73479 48.9625 3.40475C48.3773 3.22907 47.6748 3.32622 47.0512 3.19143H46.6408C46.2905 3.09333 45.9981 2.7243 45.7248 2.52974C45.1212 2.12239 44.5166 1.84888 43.7947 1.55825C43.5418 1.44167 42.8195 1.1702 42.5674 1.38393C42.4113 1.42292 42.3321 1.48148 42.2937 1.63719C42.1384 1.86953 42.2749 2.21954 42.3716 2.43381C42.6645 3.05475 43.0735 3.42377 43.4448 3.94851C43.7752 4.41387 44.1855 4.93861 44.4197 5.4446C44.925 6.53226 45.1603 7.7373 45.6285 8.82482C45.8022 9.2338 46.0768 9.69916 46.3296 10.0681C46.5439 10.3609 46.9334 10.5725 47.0512 10.9432C47.2861 11.3318 46.6996 12.614 46.5638 13.0212C46.0559 14.6146 46.1543 16.8295 46.7392 18.2106L46.7704 18.2834L46.8016 18.3572C47.0151 18.8631 47.2437 19.4078 47.8115 19.5492C47.8506 19.5106 47.8115 19.5309 47.889 19.5106C48.0264 18.4416 48.0651 17.4121 48.4359 16.5756C48.6501 16.0527 49.0779 15.683 49.3712 15.2561C49.5667 15.3724 49.5667 15.723 49.6832 15.9551C49.9369 16.557 50.2094 17.217 50.5222 17.8206C51.1643 19.0639 51.8867 20.2692 52.7052 21.3567C52.9793 21.7452 53.3683 22.1728 53.7191 22.5226C53.8754 22.6581 54.0504 22.7364 54.1678 22.9107H54.2061V22.9694C53.6212 22.7551 53.2505 22.1537 52.784 21.8026C51.9057 21.1427 50.8539 20.1517 50.2485 19.2007C49.9953 18.6548 49.7216 18.1315 49.4487 17.5883V17.549C49.3321 17.7042 49.3712 17.8583 49.3128 18.0931C49.0596 19.0639 49.2546 20.1714 48.3772 20.5206C47.3828 20.9295 46.6409 19.8606 46.3296 19.3749C45.3348 17.7626 45.0624 15.0427 45.7639 12.8472C45.9197 12.3612 45.9409 11.7783 46.213 11.3902C46.1542 11.0394 45.8821 10.9435 45.7248 10.7285C45.4519 10.3611 45.2182 9.93313 45.0045 9.52511C44.5941 8.72808 44.3021 7.77576 43.9905 6.92099C43.8535 6.57193 43.8143 6.22152 43.6777 5.89108C43.4447 5.38672 43.0153 4.88073 42.684 4.43453C42.2354 3.79321 40.9289 2.55025 41.4556 1.28664V1.28664ZM47.8502 5.0931C47.9023 5.145 47.9652 5.19038 48.0303 5.23508L48.1087 5.28862C48.2133 5.36063 48.3146 5.43645 48.3767 5.53971C48.4751 5.6764 48.4935 5.81132 48.6113 5.94828C48.6113 6.41527 48.4751 6.72574 48.2002 6.91922C48.2002 6.91922 48.1815 6.9396 48.1622 6.95862C48.0063 6.64734 47.8697 6.33769 47.7128 6.02668C47.5195 5.7552 47.2462 5.53985 47.0887 5.22965H47.0508V5.19065C47.2861 5.13291 47.5195 5.0931 47.8502 5.0931Z" fill="#3F3F3F"/>
</g>
<defs>
<clipPath id="clip0_653_297">
<rect width="70" height="47.4194" fill="white" transform="translate(0 0.290283)"/>
</clipPath>
</defs>
</svg>
