<svg width="48" height="48" viewBox="0 0 48 48" fill="none" xmlns="http://www.w3.org/2000/svg">
<path d="M37.856 20V28M27.464 38L30.928 36L34.392 34M20.536 38L17.071 36L13.607 34M10.144 20V28M13.607 14L17.072 12L20.536 10M27.464 10L30.928 12L34.392 14" stroke="url(#paint0_linear_654_329)" stroke-linecap="round" stroke-linejoin="round"/>
<path d="M24 44C25.0609 44 26.0783 43.5786 26.8284 42.8284C27.5786 42.0783 28 41.0609 28 40C28 38.9391 27.5786 37.9217 26.8284 37.1716C26.0783 36.4214 25.0609 36 24 36C22.9391 36 21.9217 36.4214 21.1716 37.1716C20.4214 37.9217 20 38.9391 20 40C20 41.0609 20.4214 42.0783 21.1716 42.8284C21.9217 43.5786 22.9391 44 24 44ZM24 12C25.0609 12 26.0783 11.5786 26.8284 10.8284C27.5786 10.0783 28 9.06087 28 8C28 6.93913 27.5786 5.92172 26.8284 5.17157C26.0783 4.42143 25.0609 4 24 4C22.9391 4 21.9217 4.42143 21.1716 5.17157C20.4214 5.92172 20 6.93913 20 8C20 9.06087 20.4214 10.0783 21.1716 10.8284C21.9217 11.5786 22.9391 12 24 12ZM24 28C25.0609 28 26.0783 27.5786 26.8284 26.8284C27.5786 26.0783 28 25.0609 28 24C28 22.9391 27.5786 21.9217 26.8284 21.1716C26.0783 20.4214 25.0609 20 24 20C22.9391 20 21.9217 20.4214 21.1716 21.1716C20.4214 21.9217 20 22.9391 20 24C20 25.0609 20.4214 26.0783 21.1716 26.8284C21.9217 27.5786 22.9391 28 24 28ZM38 20C39.0609 20 40.0783 19.5786 40.8284 18.8284C41.5786 18.0783 42 17.0609 42 16C42 14.9391 41.5786 13.9217 40.8284 13.1716C40.0783 12.4214 39.0609 12 38 12C36.9391 12 35.9217 12.4214 35.1716 13.1716C34.4214 13.9217 34 14.9391 34 16C34 17.0609 34.4214 18.0783 35.1716 18.8284C35.9217 19.5786 36.9391 20 38 20ZM38 36C39.0609 36 40.0783 35.5786 40.8284 34.8284C41.5786 34.0783 42 33.0609 42 32C42 30.9391 41.5786 29.9217 40.8284 29.1716C40.0783 28.4214 39.0609 28 38 28C36.9391 28 35.9217 28.4214 35.1716 29.1716C34.4214 29.9217 34 30.9391 34 32C34 33.0609 34.4214 34.0783 35.1716 34.8284C35.9217 35.5786 36.9391 36 38 36ZM10 20C11.0609 20 12.0783 19.5786 12.8284 18.8284C13.5786 18.0783 14 17.0609 14 16C14 14.9391 13.5786 13.9217 12.8284 13.1716C12.0783 12.4214 11.0609 12 10 12C8.93913 12 7.92172 12.4214 7.17157 13.1716C6.42143 13.9217 6 14.9391 6 16C6 17.0609 6.42143 18.0783 7.17157 18.8284C7.92172 19.5786 8.93913 20 10 20ZM10 36C11.0609 36 12.0783 35.5786 12.8284 34.8284C13.5786 34.0783 14 33.0609 14 32C14 30.9391 13.5786 29.9217 12.8284 29.1716C12.0783 28.4214 11.0609 28 10 28C8.93913 28 7.92172 28.4214 7.17157 29.1716C6.42143 29.9217 6 30.9391 6 32C6 33.0609 6.42143 34.0783 7.17157 34.8284C7.92172 35.5786 8.93913 36 10 36Z" stroke="url(#paint1_linear_654_329)" stroke-linecap="round" stroke-linejoin="round"/>
<defs>
<linearGradient id="paint0_linear_654_329" x1="-19.8773" y1="4.75" x2="48.3481" y2="52.6391" gradientUnits="userSpaceOnUse">
<stop offset="0.135417" stop-color="#00758F"/>
<stop offset="0.786458" stop-color="#781C68"/>
</linearGradient>
<linearGradient id="paint1_linear_654_329" x1="24" y1="4" x2="24" y2="44" gradientUnits="userSpaceOnUse">
<stop stop-color="#00758F"/>
<stop offset="0.510417" stop-color="#FFEDD7"/>
<stop offset="1" stop-color="#781C68"/>
</linearGradient>
</defs>
</svg>
