<svg width="30" height="30" viewBox="0 0 30 30" fill="none" xmlns="http://www.w3.org/2000/svg">
<path d="M7.52942 8.85563C6.74318 9.31922 5.81485 9.48014 4.91845 9.30822C4.02205 9.13631 3.21912 8.64337 2.66017 7.92179C2.10122 7.20022 1.82463 6.29956 1.88224 5.38865C1.93985 4.47773 2.32771 3.61909 2.97311 2.97369C3.61851 2.32829 4.47715 1.94043 5.38807 1.88282C6.29898 1.82521 7.19964 2.1018 7.92122 2.66075C8.64279 3.2197 9.13573 4.02263 9.30764 4.91903C9.47956 5.81543 9.31864 6.74376 8.85505 7.53L13.0944 11.7675C13.6714 11.4271 14.3295 11.2484 14.9994 11.25C15.6932 11.25 16.3457 11.4394 16.9044 11.7694L21.1419 7.53C20.6783 6.74376 20.5174 5.81543 20.6893 4.91903C20.8612 4.02263 21.3542 3.2197 22.0758 2.66075C22.7973 2.1018 23.698 1.82521 24.6089 1.88282C25.5198 1.94043 26.3785 2.32829 27.0239 2.97369C27.6693 3.61909 28.0571 4.47773 28.1147 5.38865C28.1723 6.29956 27.8958 7.20022 27.3368 7.92179C26.7779 8.64337 25.9749 9.13631 25.0785 9.30822C24.1821 9.48014 23.2538 9.31922 22.4675 8.85563L18.23 13.095C18.5718 13.6717 18.7521 14.3297 18.7521 15C18.7521 15.6703 18.5718 16.3283 18.23 16.905L22.4694 21.1425C23.2557 20.6789 24.184 20.518 25.0804 20.6899C25.9768 20.8618 26.7797 21.3548 27.3387 22.0763C27.8976 22.7979 28.1742 23.6986 28.1166 24.6095C28.059 25.5204 27.6711 26.379 27.0257 27.0244C26.3803 27.6698 25.5217 28.0577 24.6108 28.1153C23.6999 28.1729 22.7992 27.8963 22.0776 27.3374C21.3561 26.7784 20.8631 25.9755 20.6912 25.0791C20.5193 24.1827 20.6802 23.2544 21.1438 22.4681L16.9044 18.2306C16.3276 18.5717 15.6695 18.7511 14.9994 18.75C14.3293 18.7511 13.6713 18.5717 13.0944 18.2306L8.85692 22.47C9.32051 23.2562 9.48143 24.1846 9.30952 25.081C9.1376 25.9774 8.64466 26.7803 7.92309 27.3393C7.20152 27.8982 6.30086 28.1748 5.38994 28.1172C4.47902 28.0596 3.62039 27.6717 2.97499 27.0263C2.32958 26.3809 1.94172 25.5223 1.88411 24.6114C1.8265 23.7004 2.1031 22.7998 2.66204 22.0782C3.22099 21.3566 4.02392 20.8637 4.92033 20.6918C5.81673 20.5199 6.74506 20.6808 7.5313 21.1444L11.7688 16.905C11.4277 16.3282 11.2483 15.6701 11.2494 15C11.2494 14.3063 11.4388 13.6538 11.7688 13.095L7.52942 8.85563Z" fill="#F5F5F5"/>
</svg>
