<svg width="50" height="50" viewBox="0 0 50 50" fill="none" xmlns="http://www.w3.org/2000/svg">
<path d="M12.5001 31.25C12.5001 32.3551 12.0611 33.4149 11.2797 34.1963C10.4983 34.9777 9.43848 35.4167 8.33341 35.4167C7.22835 35.4167 6.16854 34.9777 5.38714 34.1963C4.60573 33.4149 4.16675 32.3551 4.16675 31.25C4.16675 30.1449 4.60573 29.0851 5.38714 28.3037C6.16854 27.5223 7.22835 27.0833 8.33341 27.0833H12.5001V31.25ZM14.5834 31.25C14.5834 30.1449 15.0224 29.0851 15.8038 28.3037C16.5852 27.5223 17.645 27.0833 18.7501 27.0833C19.8551 27.0833 20.915 27.5223 21.6964 28.3037C22.4778 29.0851 22.9167 30.1449 22.9167 31.25V41.6667C22.9167 42.7717 22.4778 43.8315 21.6964 44.6129C20.915 45.3943 19.8551 45.8333 18.7501 45.8333C17.645 45.8333 16.5852 45.3943 15.8038 44.6129C15.0224 43.8315 14.5834 42.7717 14.5834 41.6667V31.25ZM18.7501 14.5833C17.645 14.5833 16.5852 14.1443 15.8038 13.3629C15.0224 12.5815 14.5834 11.5217 14.5834 10.4167C14.5834 9.3116 15.0224 8.25179 15.8038 7.47039C16.5852 6.68899 17.645 6.25 18.7501 6.25C19.8551 6.25 20.915 6.68899 21.6964 7.47039C22.4778 8.25179 22.9167 9.3116 22.9167 10.4167V14.5833H18.7501ZM18.7501 16.6667C19.8551 16.6667 20.915 17.1057 21.6964 17.8871C22.4778 18.6685 22.9167 19.7283 22.9167 20.8333C22.9167 21.9384 22.4778 22.9982 21.6964 23.7796C20.915 24.561 19.8551 25 18.7501 25H8.33341C7.22835 25 6.16854 24.561 5.38714 23.7796C4.60573 22.9982 4.16675 21.9384 4.16675 20.8333C4.16675 19.7283 4.60573 18.6685 5.38714 17.8871C6.16854 17.1057 7.22835 16.6667 8.33341 16.6667H18.7501ZM35.4167 20.8333C35.4167 19.7283 35.8557 18.6685 36.6371 17.8871C37.4185 17.1057 38.4783 16.6667 39.5834 16.6667C40.6885 16.6667 41.7483 17.1057 42.5297 17.8871C43.3111 18.6685 43.7501 19.7283 43.7501 20.8333C43.7501 21.9384 43.3111 22.9982 42.5297 23.7796C41.7483 24.561 40.6885 25 39.5834 25H35.4167V20.8333ZM33.3334 20.8333C33.3334 21.9384 32.8944 22.9982 32.113 23.7796C31.3316 24.561 30.2718 25 29.1667 25C28.0617 25 27.0019 24.561 26.2205 23.7796C25.4391 22.9982 25.0001 21.9384 25.0001 20.8333V10.4167C25.0001 9.3116 25.4391 8.25179 26.2205 7.47039C27.0019 6.68899 28.0617 6.25 29.1667 6.25C30.2718 6.25 31.3316 6.68899 32.113 7.47039C32.8944 8.25179 33.3334 9.3116 33.3334 10.4167V20.8333ZM29.1667 37.5C30.2718 37.5 31.3316 37.939 32.113 38.7204C32.8944 39.5018 33.3334 40.5616 33.3334 41.6667C33.3334 42.7717 32.8944 43.8315 32.113 44.6129C31.3316 45.3943 30.2718 45.8333 29.1667 45.8333C28.0617 45.8333 27.0019 45.3943 26.2205 44.6129C25.4391 43.8315 25.0001 42.7717 25.0001 41.6667V37.5H29.1667ZM29.1667 35.4167C28.0617 35.4167 27.0019 34.9777 26.2205 34.1963C25.4391 33.4149 25.0001 32.3551 25.0001 31.25C25.0001 30.1449 25.4391 29.0851 26.2205 28.3037C27.0019 27.5223 28.0617 27.0833 29.1667 27.0833H39.5834C40.6885 27.0833 41.7483 27.5223 42.5297 28.3037C43.3111 29.0851 43.7501 30.1449 43.7501 31.25C43.7501 32.3551 43.3111 33.4149 42.5297 34.1963C41.7483 34.9777 40.6885 35.4167 39.5834 35.4167H29.1667Z" fill="#3F3F3F"/>
</svg>
