<svg width="50" height="50" viewBox="0 0 50 50" fill="none" xmlns="http://www.w3.org/2000/svg">
<path d="M5.41675 22.0626L17.4584 10.0001L20.9792 13.5417C20.4792 15.3126 21.2917 17.2501 22.9167 18.1876V29.7292C21.6667 30.4376 20.8334 31.7917 20.8334 33.3334C20.8334 34.4385 21.2724 35.4983 22.0538 36.2797C22.8352 37.0611 23.895 37.5001 25.0001 37.5001C26.1051 37.5001 27.165 37.0611 27.9464 36.2797C28.7278 35.4983 29.1667 34.4385 29.1667 33.3334C29.1667 31.7917 28.3334 30.4376 27.0834 29.7292V19.6042L31.3959 23.9584C31.2501 24.2709 31.2501 24.6251 31.2501 25.0001C31.2501 26.1051 31.6891 27.165 32.4705 27.9464C33.2519 28.7278 34.3117 29.1667 35.4167 29.1667C36.5218 29.1667 37.5816 28.7278 38.363 27.9464C39.1444 27.165 39.5834 26.1051 39.5834 25.0001C39.5834 23.895 39.1444 22.8352 38.363 22.0538C37.5816 21.2724 36.5218 20.8334 35.4167 20.8334C35.0417 20.8334 34.6876 20.8334 34.3751 20.9792L29.0209 15.6251C29.2796 14.6602 29.1793 13.6341 28.7387 12.7376C28.2981 11.841 27.547 11.1348 26.6251 10.7501C25.7292 10.4167 24.7917 10.3334 23.9584 10.5626L20.4167 7.04175L22.0626 5.41675C23.6876 3.77091 26.3126 3.77091 27.9376 5.41675L44.5834 22.0626C46.2292 23.6876 46.2292 26.3126 44.5834 27.9376L27.9376 44.5834C26.3126 46.2292 23.6876 46.2292 22.0626 44.5834L5.41675 27.9376C3.77091 26.3126 3.77091 23.6876 5.41675 22.0626Z" fill="#3F3F3F"/>
</svg>
