<svg width="30" height="30" viewBox="0 0 30 30" fill="none" xmlns="http://www.w3.org/2000/svg">
<path d="M15.0001 0C6.71684 0 0 6.87684 0 15.3601C0 22.1466 4.29797 27.9043 10.258 29.9353C11.0077 30.0775 11.2829 29.6021 11.2829 29.1964C11.2829 28.8301 11.2689 27.6202 11.2625 26.3368C7.08949 27.2658 6.20895 24.5244 6.20895 24.5244C5.52656 22.749 4.54336 22.2768 4.54336 22.2768C3.18246 21.3235 4.64602 21.3432 4.64602 21.3432C6.15223 21.4514 6.94535 22.926 6.94535 22.926C8.28328 25.2742 10.4545 24.5953 11.3105 24.2028C11.4451 23.2102 11.8338 22.5324 12.2629 22.1489C8.93109 21.7606 5.42871 20.4434 5.42871 14.5579C5.42871 12.8809 6.01465 11.5106 6.97418 10.435C6.81844 10.0481 6.30504 8.48592 7.11949 6.37008C7.11949 6.37008 8.37914 5.95728 11.2457 7.9446C12.4421 7.60428 13.7254 7.43364 15.0001 7.42776C16.2749 7.43364 17.5591 7.60416 18.7579 7.9446C21.6209 5.9574 22.8787 6.3702 22.8787 6.3702C23.6952 8.4858 23.1816 10.0482 23.0258 10.435C23.9876 11.5106 24.5695 12.8809 24.5695 14.5579C24.5695 20.4575 21.0605 21.7565 17.7203 22.1368C18.2583 22.6134 18.7377 23.5482 18.7377 24.9812C18.7377 27.0364 18.7204 28.6904 18.7204 29.1964C18.7204 29.6052 18.9904 30.0841 19.7507 29.9332C25.7074 27.9 30 22.1444 30 15.3602C30 6.87684 23.2841 0 15.0001 0ZM5.61809 21.8808C5.58504 21.9571 5.46773 21.98 5.36098 21.9276C5.25211 21.8776 5.19105 21.7735 5.22621 21.697C5.25855 21.6184 5.37609 21.5964 5.48461 21.6491C5.59359 21.6992 5.6557 21.8042 5.61809 21.8808ZM6.3559 22.555C6.28441 22.6229 6.14449 22.5913 6.04957 22.484C5.95148 22.377 5.93309 22.2337 6.00563 22.1648C6.07945 22.0969 6.21504 22.1287 6.31336 22.2358C6.41156 22.3441 6.43055 22.4863 6.3559 22.555ZM6.86215 23.4175C6.77016 23.4829 6.61992 23.4216 6.52699 23.285C6.43512 23.1485 6.43512 22.9847 6.52898 22.919C6.62215 22.8534 6.77016 22.9124 6.86426 23.048C6.9559 23.1869 6.9559 23.3507 6.86203 23.4176L6.86215 23.4175ZM7.71809 24.4165C7.63594 24.5094 7.46074 24.4844 7.33254 24.3577C7.20141 24.2339 7.16496 24.0582 7.24746 23.9653C7.33066 23.8722 7.5068 23.8984 7.63594 24.0241C7.76602 24.1477 7.80586 24.3247 7.71809 24.4165ZM8.82457 24.7537C8.78824 24.8741 8.61949 24.9288 8.44969 24.8777C8.28 24.825 8.16902 24.6841 8.20324 24.5626C8.23852 24.4414 8.40797 24.3845 8.57906 24.4392C8.74852 24.4915 8.85984 24.6314 8.82457 24.7538V24.7537ZM10.0836 24.8969C10.0879 25.0235 9.94383 25.1285 9.76547 25.1309C9.58617 25.135 9.44098 25.0325 9.43898 24.9077C9.43898 24.7799 9.57984 24.6758 9.75926 24.6727C9.93762 24.6691 10.0836 24.7709 10.0836 24.8969V24.8969ZM11.3205 24.8483C11.3419 24.9719 11.218 25.0988 11.0408 25.1327C10.8668 25.1652 10.7055 25.0889 10.6834 24.9664C10.6618 24.8396 10.788 24.7127 10.9618 24.6799C11.1393 24.6484 11.2979 24.7226 11.3205 24.8483Z" fill="#F5F5F5"/>
</svg>
