<svg width="60" height="60" viewBox="0 0 60 60" fill="none" xmlns="http://www.w3.org/2000/svg">
<path d="M30 45.2C13.425 45.2 0 38.4 0 30C0 21.6 13.425 14.8 30 14.8C46.575 14.8 60 21.6 60 30C60 38.4 46.575 45.2 30 45.2ZM17.025 25.325C18.375 25.325 19.3 25.575 19.75 26.1C20.2 26.6 20.3 27.5 20.075 28.675C19.825 30 19.35 30.85 18.625 31.4C17.925 31.95 16.85 32.225 15.4 32.225H13.225L14.55 25.325H17.025ZM8.275 39.2H11.875L12.725 34.825H15.8C17.15 34.825 18.25 34.675 19.125 34.4C20 34.1 20.8 33.625 21.525 32.95C22.125 32.4 22.6 31.8 22.975 31.125C23.35 30.475 23.625 29.725 23.75 28.925C24.15 26.975 23.875 25.45 22.925 24.375C21.95 23.275 20.45 22.75 18.375 22.75H11.475L8.275 39.2ZM26.4 18.375L23.2 34.825H26.75L28.6 25.4H31.45C32.35 25.4 32.95 25.55 33.225 25.85C33.5 26.15 33.55 26.7 33.4 27.5L31.975 34.825H35.6L37.075 27.15C37.4 25.6 37.15 24.475 36.4 23.75C35.65 23.075 34.275 22.75 32.275 22.75H29.1L30 18.375H26.4ZM45 25.325C46.375 25.325 47.275 25.575 47.725 26.1C48.175 26.6 48.275 27.5 48.05 28.675C47.8 30 47.325 30.85 46.625 31.4C45.9 31.95 44.825 32.225 43.375 32.225H41.25L42.5 25.325H45ZM36.25 39.2H39.85L40.7 34.825H43.75C45.125 34.825 46.25 34.675 47.125 34.4C48 34.1 48.75 33.625 49.5 32.95C50.1 32.4 50.6 31.8 50.95 31.125C51.325 30.475 51.6 29.725 51.75 28.925C52.125 26.975 51.85 25.45 50.9 24.375C50 23.275 48.425 22.75 46.35 22.75H39.475L36.25 39.2Z" fill="#3F3F3F"/>
</svg>
