<svg width="51" height="50" viewBox="0 0 51 50" fill="none" xmlns="http://www.w3.org/2000/svg">
<path d="M25.3333 4.16675C22.5975 4.16675 19.8884 4.70562 17.3608 5.75259C14.8331 6.79956 12.5365 8.33414 10.6019 10.2687C6.69493 14.1757 4.5 19.4747 4.5 25.0001C4.5 34.2084 10.4792 42.0209 18.75 44.7917C19.7917 44.9584 20.125 44.3126 20.125 43.7501V40.2292C14.3542 41.4792 13.125 37.4376 13.125 37.4376C12.1667 35.0209 10.8125 34.3751 10.8125 34.3751C8.91667 33.0834 10.9583 33.1251 10.9583 33.1251C13.0417 33.2709 14.1458 35.2709 14.1458 35.2709C15.9583 38.4376 19.0208 37.5001 20.2083 37.0001C20.3958 35.6459 20.9375 34.7292 21.5208 34.2084C16.8958 33.6876 12.0417 31.8959 12.0417 23.9584C12.0417 21.6459 12.8333 19.7917 14.1875 18.3126C13.9792 17.7917 13.25 15.6251 14.3958 12.8126C14.3958 12.8126 16.1458 12.2501 20.125 14.9376C21.7708 14.4792 23.5625 14.2501 25.3333 14.2501C27.1042 14.2501 28.8958 14.4792 30.5417 14.9376C34.5208 12.2501 36.2708 12.8126 36.2708 12.8126C37.4167 15.6251 36.6875 17.7917 36.4792 18.3126C37.8333 19.7917 38.625 21.6459 38.625 23.9584C38.625 31.9167 33.75 33.6667 29.1042 34.1876C29.8542 34.8334 30.5417 36.1042 30.5417 38.0417V43.7501C30.5417 44.3126 30.875 44.9792 31.9375 44.7917C40.2083 42.0001 46.1667 34.2084 46.1667 25.0001C46.1667 22.2642 45.6278 19.5551 44.5808 17.0275C43.5339 14.4999 41.9993 12.2032 40.0647 10.2687C38.1302 8.33414 35.8335 6.79956 33.3059 5.75259C30.7783 4.70562 28.0692 4.16675 25.3333 4.16675V4.16675Z" fill="#3F3F3F"/>
</svg>
