<svg width="38" height="50" viewBox="0 0 38 50" fill="none" xmlns="http://www.w3.org/2000/svg">
<g clip-path="url(#clip0_653_267)">
<path d="M0.339485 49.2022V37.3543C0.346188 37.0586 0.440145 36.7715 0.609545 36.5291C0.778945 36.2867 1.01623 36.0997 1.29157 35.9918L1.30198 35.9876L16.8291 31.0688L1.2999 26.1397C1.11631 26.0707 0.948369 25.9656 0.805971 25.8307C0.663574 25.6958 0.549593 25.5338 0.470735 25.3543L0.466568 25.3438C0.383342 25.2039 0.339436 25.0441 0.339485 24.8813V24.8522V24.8543V12.9022C0.339485 12.7293 0.387401 12.5668 0.472818 12.4293L0.470735 12.4334C0.547821 12.2533 0.660421 12.0905 0.801809 11.9549C0.943197 11.8192 1.11047 11.7134 1.29365 11.6438L1.30407 11.6397L37.8624 0.0480063C37.9778 0.00456431 38.1025 -0.00827157 38.2243 0.010747C38.3462 0.0297655 38.461 0.0799912 38.5577 0.156539C38.6544 0.233088 38.7296 0.333353 38.7761 0.447584C38.8225 0.561816 38.8386 0.686125 38.8228 0.808423V0.804256V12.6501C38.815 12.9455 38.7206 13.2321 38.5514 13.4743C38.3821 13.7165 38.1454 13.9037 37.8707 14.0126L37.8603 14.0168L22.4957 18.8876L37.8666 23.7605C38.1442 23.8676 38.3838 24.0546 38.5551 24.2978C38.7265 24.5411 38.8218 24.8297 38.8291 25.1272V36.9834C38.8289 37.0576 38.8212 37.1316 38.8061 37.2043L38.8082 37.198C38.7661 37.4564 38.6576 37.6994 38.4932 37.9032C38.3289 38.107 38.1143 38.2646 37.8707 38.3605L37.8603 38.3647L1.2999 49.9563C1.21385 49.9851 1.12393 50.0005 1.03323 50.0022C0.933307 49.9992 0.835107 49.9753 0.744912 49.9322C0.654717 49.8891 0.574509 49.8276 0.509415 49.7517C0.444321 49.6759 0.395772 49.5872 0.366871 49.4915C0.33797 49.3958 0.329352 49.2952 0.341568 49.1959V49.2001L0.339485 49.2022Z" fill="#3F3F3F"/>
</g>
<defs>
<clipPath id="clip0_653_267">
<rect width="37.5" height="50" fill="white" transform="translate(0.333252)"/>
</clipPath>
</defs>
</svg>
