<svg width="51" height="50" viewBox="0 0 51 50" fill="none" xmlns="http://www.w3.org/2000/svg">
<g clip-path="url(#clip0_653_258)">
<mask id="mask0_653_258" style="mask-type:luminance" maskUnits="userSpaceOnUse" x="0" y="0" width="51" height="50">
<path d="M0.833252 0H50.8333V50H0.833252V0Z" fill="white"/>
</mask>
<g mask="url(#mask0_653_258)">
<path d="M1.30841 17.4374C1.30841 17.4374 0.0917441 16.5478 1.55216 15.3645L4.95841 12.2853C4.95841 12.2853 5.93133 11.2499 6.96258 12.152L38.3813 36.1978V47.727C38.3813 47.727 38.3667 49.5395 36.0688 49.3395L1.30633 17.4353L1.30841 17.4374Z" fill="#3F3F3F"/>
<path d="M9.40836 24.8688L1.30836 32.3105C1.30836 32.3105 0.475025 32.9355 1.30836 34.0542L5.06878 37.5125C5.06878 37.5125 5.96253 38.4813 7.28128 37.3771L15.8667 30.798L9.40836 24.8688ZM23.625 24.9292L38.4792 13.4667L38.3813 1.99796C38.3813 1.99796 37.7459 -0.506207 35.6313 0.79796L15.8667 18.9792L23.625 24.9292Z" fill="#3F3F3F"/>
<path d="M36.0665 49.3543C36.929 50.2459 37.9749 49.9543 37.9749 49.9543L49.5499 44.1897C51.0311 43.1688 50.8228 41.9022 50.8228 41.9022V7.4751C50.8228 5.9626 49.2915 5.43968 49.2915 5.43968L39.2582 0.550101C37.0665 -0.818649 35.6311 0.798018 35.6311 0.798018C35.6311 0.798018 37.4769 -0.545732 38.3811 1.99802V47.5188C38.3811 47.8313 38.3144 48.1376 38.1832 48.4147C37.9186 48.9543 37.3457 49.4563 35.9707 49.248L36.0665 49.3543Z" fill="#3F3F3F"/>
</g>
</g>
<defs>
<clipPath id="clip0_653_258">
<rect width="50" height="50" fill="white" transform="translate(0.833252)"/>
</clipPath>
</defs>
</svg>
