<svg width="100" height="100" viewBox="0 0 100 100" fill="none" xmlns="http://www.w3.org/2000/svg">
<g clip-path="url(#clip0_677_9)">
<path d="M39.8438 44.5313V29.1125H50.9687C57.05 29.1125 60.6062 31.9688 60.6062 36.8438C60.6062 41.8563 56.8313 44.5313 49.5813 44.5313H39.8438ZM39.8438 68.0438H51.7062C59.1062 68.0438 63.0188 65.0438 63.0188 59.4376C63.0188 53.9063 58.9562 51.0125 51.2312 51.0125H39.8438V68.0438Z" fill="#3F3F3F"/>
<path d="M25.0124 0C18.382 0 12.0232 2.63392 7.33478 7.32233C2.64637 12.0107 0.0124512 18.3696 0.0124512 25V75C0.0124512 81.6304 2.64637 87.9893 7.33478 92.6777C12.0232 97.3661 18.382 100 25.0124 100H75.0125C81.6429 100 88.0017 97.3661 92.6901 92.6777C97.3785 87.9893 100.012 81.6304 100.012 75V25C100.012 18.3696 97.3785 12.0107 92.6901 7.32233C88.0017 2.63392 81.6429 0 75.0125 0L25.0124 0ZM31.6375 75V22.1563H52.8812C62.8 22.1563 68.775 27.2125 68.775 35.3438C68.775 40.8688 64.7125 45.8125 59.5062 46.6938V47.3188C66.65 48.05 71.4062 53.1375 71.4062 60.025C71.4062 69.325 64.6312 75 53.3562 75H31.6375Z" fill="#3F3F3F"/>
</g>
<defs>
<clipPath id="clip0_677_9">
<rect width="100" height="100" fill="white"/>
</clipPath>
</defs>
</svg>
