<svg width="596" height="1000" viewBox="0 0 596 1000" fill="none" xmlns="http://www.w3.org/2000/svg">
<path d="M85.4876 713.323C85.5841 753.275 98.1706 792.299 121.655 825.461C145.14 858.624 178.469 884.434 217.426 899.629C256.384 914.824 299.22 918.721 340.519 910.827C381.818 902.933 419.725 883.603 449.445 855.281C479.165 826.959 499.365 790.917 507.489 751.713C515.613 712.509 511.297 671.904 495.086 635.032C478.876 598.161 451.499 566.678 416.418 544.567C381.337 522.456 340.127 510.708 297.999 510.81" stroke="#3A7072" stroke-width="169" stroke-linecap="round"/>
<path d="M501.483 299.136C501.759 257.01 490.183 215.751 468.218 180.579C446.252 145.406 414.884 117.898 378.08 101.535C341.276 85.1712 300.689 80.6864 261.452 88.6474C222.215 96.6085 186.089 116.658 157.644 146.26C129.199 175.863 109.711 213.688 101.646 254.954C93.58 296.22 97.2989 339.073 112.332 378.093C127.365 417.113 153.036 450.549 186.101 474.171C219.165 497.793 258.137 510.542 298.087 510.804" stroke="#3A7072" stroke-width="169" stroke-linecap="round"/>
<path d="M86.9747 710.837C87.0711 750.788 99.6576 789.813 123.142 822.975C146.627 856.137 179.956 881.947 218.913 897.142C257.871 912.337 300.707 916.234 342.006 908.34C383.305 900.446 421.212 881.116 450.932 852.794C480.652 824.472 500.852 788.43 508.976 749.226C517.1 710.022 512.784 669.417 496.573 632.546C480.363 595.674 452.986 564.192 417.905 542.08C382.824 519.969 341.614 508.221 299.486 508.323" stroke="#A1CACB" stroke-width="100" stroke-linecap="round"/>
<path d="M502.97 296.65C503.247 254.523 491.67 213.265 469.705 178.092C447.739 142.919 416.371 115.412 379.567 99.0483C342.763 82.6847 302.177 78.1998 262.939 86.1609C223.702 94.1219 187.577 114.171 159.131 143.774C130.686 173.376 111.198 211.202 103.133 252.468C95.0673 293.733 98.7862 336.586 113.819 375.606C128.852 414.627 154.524 448.062 187.588 471.684C220.652 495.307 259.624 508.055 299.575 508.318" stroke="#A1CACB" stroke-width="100" stroke-linecap="round"/>
</svg>
